<svg width="13" height="12" viewBox="0 0 13 12" fill="none" xmlns="http://www.w3.org/2000/svg">
<path d="M1.28976 6.71L6.28564 11.71C6.38066 11.801 6.49272 11.8724 6.61537 11.92C6.85863 12.02 7.13148 12.02 7.37474 11.92C7.49739 11.8724 7.60944 11.801 7.70447 11.71L12.7004 6.71C12.7935 6.61676 12.8674 6.50607 12.9178 6.38425C12.9683 6.26243 12.9942 6.13186 12.9942 6C12.9942 5.7337 12.8885 5.4783 12.7004 5.29C12.5122 5.1017 12.257 4.99591 11.9909 4.99591C11.7249 4.99591 11.4697 5.1017 11.2815 5.29L7.99423 8.59V1C7.99423 0.734783 7.88896 0.480429 7.70158 0.292892C7.5142 0.105356 7.26005 0 6.99505 0C6.73006 0 6.47591 0.105356 6.28853 0.292892C6.10115 0.480429 5.99588 0.734783 5.99588 1V8.59L2.70859 5.29C2.6157 5.19627 2.50519 5.12188 2.38343 5.07111C2.26167 5.02034 2.13107 4.9942 1.99917 4.9942C1.86727 4.9942 1.73667 5.02034 1.61491 5.07111C1.49315 5.12188 1.38264 5.19627 1.28976 5.29C1.19611 5.38296 1.12177 5.49356 1.07104 5.61542C1.02032 5.73728 0.994202 5.86799 0.994202 6C0.994202 6.13201 1.02032 6.26272 1.07104 6.38458C1.12177 6.50644 1.19611 6.61704 1.28976 6.71Z" fill="#FF8000"/>
</svg>
