<svg viewBox="0 0 12 10" fill="none" xmlns="http://www.w3.org/2000/svg">
<path d="M2.01724 1.29002C1.82238 1.09641 1.55591 0.985539 1.27646 0.981788C0.997005 0.978037 0.727456 1.08172 0.527109 1.27002C0.326761 1.45833 0.212027 1.71583 0.208145 1.98588C0.204264 2.25593 0.311554 2.51641 0.506412 2.71002L2.92787 5.00002L0.506412 7.29002C0.409421 7.38298 0.332437 7.49358 0.279901 7.61544C0.227365 7.7373 0.200317 7.86801 0.200317 8.00002C0.200317 8.13203 0.227365 8.26274 0.279901 8.3846C0.332437 8.50646 0.409421 8.61706 0.506412 8.71002C0.602611 8.80375 0.717063 8.87814 0.843164 8.92891C0.969265 8.97968 1.10452 9.00582 1.24113 9.00582C1.37773 9.00582 1.51299 8.97968 1.63909 8.92891C1.76519 8.87814 1.87964 8.80375 1.97584 8.71002L5.08027 5.71002C5.17726 5.61706 5.25425 5.50646 5.30678 5.3846C5.35932 5.26274 5.38637 5.13203 5.38637 5.00002C5.38637 4.86801 5.35932 4.7373 5.30678 4.61544C5.25425 4.49358 5.17726 4.38298 5.08027 4.29002L2.01724 1.29002ZM10.8131 4.29002L7.70869 1.29002C7.51383 1.10172 7.24955 0.99593 6.97398 0.99593C6.6984 0.99593 6.43412 1.10172 6.23926 1.29002C6.0444 1.47833 5.93493 1.73372 5.93493 2.00002C5.93493 2.26632 6.0444 2.52172 6.23926 2.71002L8.61932 5.00002L6.23926 7.29002C6.14227 7.38298 6.06529 7.49358 6.01275 7.61544C5.96021 7.7373 5.93317 7.86801 5.93317 8.00002C5.93317 8.13203 5.96021 8.26274 6.01275 8.3846C6.06529 8.50646 6.14227 8.61706 6.23926 8.71002C6.33546 8.80375 6.44991 8.87814 6.57601 8.92891C6.70211 8.97968 6.83737 9.00582 6.97398 9.00582C7.11058 9.00582 7.24584 8.97968 7.37194 8.92891C7.49804 8.87814 7.61249 8.80375 7.70869 8.71002L10.8131 5.71002C10.9129 5.61973 10.9931 5.51123 11.0492 5.3908C11.1054 5.27037 11.1362 5.14038 11.1401 5.00836C11.1439 4.87633 11.1207 4.74488 11.0717 4.62158C11.0226 4.49829 10.9488 4.3856 10.8545 4.29002H10.8131Z" fill="#F3F3F3"/>
</svg>
