<svg viewBox="0 0 20 20" fill="none" xmlns="http://www.w3.org/2000/svg">
<path d="M15 9.01669C14.7789 9.01669 14.567 9.10448 14.4107 9.26077C14.2544 9.41705 14.1666 9.62901 14.1666 9.85002V15.8334C14.1666 16.0544 14.0788 16.2663 13.9225 16.4226C13.7663 16.5789 13.5543 16.6667 13.3333 16.6667H4.16663C3.94561 16.6667 3.73365 16.5789 3.57737 16.4226C3.42109 16.2663 3.33329 16.0544 3.33329 15.8334V6.66669C3.33329 6.44567 3.42109 6.23371 3.57737 6.07743C3.73365 5.92115 3.94561 5.83335 4.16663 5.83335H10.15C10.371 5.83335 10.5829 5.74556 10.7392 5.58928C10.8955 5.433 10.9833 5.22103 10.9833 5.00002C10.9833 4.77901 10.8955 4.56705 10.7392 4.41076C10.5829 4.25448 10.371 4.16669 10.15 4.16669H4.16663C3.50358 4.16669 2.8677 4.43008 2.39886 4.89892C1.93002 5.36776 1.66663 6.00365 1.66663 6.66669V15.8334C1.66663 16.4964 1.93002 17.1323 2.39886 17.6011C2.8677 18.07 3.50358 18.3334 4.16663 18.3334H13.3333C13.9963 18.3334 14.6322 18.07 15.1011 17.6011C15.5699 17.1323 15.8333 16.4964 15.8333 15.8334V9.85002C15.8333 9.62901 15.7455 9.41705 15.5892 9.26077C15.4329 9.10448 15.221 9.01669 15 9.01669ZM18.2666 2.18335C18.1821 1.97973 18.0203 1.81792 17.8166 1.73335C17.7164 1.69065 17.6089 1.668 17.5 1.66669H12.5C12.2789 1.66669 12.067 1.75448 11.9107 1.91076C11.7544 2.06704 11.6666 2.27901 11.6666 2.50002C11.6666 2.72103 11.7544 2.933 11.9107 3.08928C12.067 3.24556 12.2789 3.33335 12.5 3.33335H15.4916L6.90829 11.9084C6.83019 11.9858 6.76819 12.078 6.72588 12.1795C6.68358 12.2811 6.66179 12.39 6.66179 12.5C6.66179 12.61 6.68358 12.719 6.72588 12.8205C6.76819 12.9221 6.83019 13.0142 6.90829 13.0917C6.98576 13.1698 7.07793 13.2318 7.17948 13.2741C7.28103 13.3164 7.38995 13.3382 7.49996 13.3382C7.60997 13.3382 7.71889 13.3164 7.82044 13.2741C7.92199 13.2318 8.01416 13.1698 8.09163 13.0917L16.6666 4.50835V7.50002C16.6666 7.72103 16.7544 7.933 16.9107 8.08928C17.067 8.24556 17.2789 8.33335 17.5 8.33335C17.721 8.33335 17.9329 8.24556 18.0892 8.08928C18.2455 7.933 18.3333 7.72103 18.3333 7.50002V2.50002C18.332 2.39112 18.3093 2.28354 18.2666 2.18335Z" fill="#F3F3F3"/>
</svg>
