<svg width="1004" height="578" viewBox="0 0 1004 578" fill="none" xmlns="http://www.w3.org/2000/svg">
<path d="M-87 528.561C-45.1672 514.331 3.7503 506.122 43.4048 527.707C66.3077 540.174 84.5468 559.194 100.999 575.435C119.291 593.492 136.253 612.05 156.176 629.332" stroke="#6CD1F1" stroke-width="4" stroke-linecap="round"/>
<path d="M-78.4848 414.137C-45.6158 402.732 -25.4599 382.852 14.9459 385.196C35.3261 386.379 53.1867 409.008 64.8609 418.312C87.4081 436.282 112.036 453.728 137.956 469.551C171.234 489.866 209.598 511.993 254.851 518.703C304.516 526.067 356.266 546.299 389.948 571.271" stroke="#6CD1F1" stroke-width="8" stroke-linecap="round"/>
<path d="M-19.3209 331.635C1.46477 321.128 20.3527 313.142 47.8013 312.847C71.0881 312.596 92.8399 322.757 109.946 332.773C144.795 353.179 174.377 379.349 203.377 403.37C230.691 425.994 262.716 444.396 300.078 459.354C336.458 473.918 376.79 483.426 414.414 496.455C449.1 508.466 482.7 522.603 513.106 539.059C533.466 550.078 549.522 564.568 566.861 577.584" stroke="#6CD1F1" stroke-width="8" stroke-linecap="round"/>
<path d="M-47.4782 247.944C-31.9967 233.896 -20.9282 218.549 7.69857 215.493C21.8982 213.977 35.4182 213.785 49.7922 213.785C68.8862 213.785 82.8964 220.745 97.2896 228.777C139.522 252.345 168.165 287.657 202.097 316.168C220.713 331.81 251.295 354.2 280.169 335.81C306.736 318.889 336.059 300.892 374.311 300.892C426.56 300.892 467.766 328.341 497.605 354.693C538.631 390.924 573.566 425.777 593.027 469.981C609.975 508.479 633.507 547.585 638.533 587.832" stroke="#6CD1F1" stroke-width="10" stroke-linecap="round"/>
<path d="M-32.8818 149.14C-10.5067 130.698 15.2715 116.671 52.5523 115.749C76.8355 115.149 95.6395 116.492 117.557 123.804C146.85 133.577 166.049 151.784 184.418 169.244C213.4 196.791 237.293 234.447 293.068 238.986C340.935 242.881 370.51 208.115 414.306 200.225C457.763 192.396 512.928 188.255 553.911 203.116C612.513 224.367 657.542 262.86 687.324 302.119C729.089 357.174 755.785 416.285 772.965 476.784C782.707 511.091 783.163 546.048 791.744 580.4" stroke="#6CD1F1" stroke-width="10" stroke-linecap="round"/>
<path d="M-49.5972 64.8712C-36.9734 53.4157 -31.8034 39.0496 -17.095 28.3822C-3.76376 18.7135 14.8745 12.3452 33.9797 10.0688C55.3095 7.52735 75.9134 6.47556 97.0236 11.0327C119.738 15.9362 140.946 23.4588 162.131 30.723C200.85 43.9994 236.711 65.7011 280.583 70.7921C293.025 72.236 313.441 74.7657 325.57 71.6183C338.54 68.253 351.166 64.6216 364.16 61.1535C396.222 52.5963 424.71 47.5218 459.293 47.5218C500.176 47.5218 534.597 63.9514 567.015 78.503C603.525 94.8916 631.669 117.643 656.163 141.705C675.299 160.502 696.549 176.706 724.469 189.347C743.346 197.894 765.701 197.423 786.172 203.667C808.189 210.383 828.501 220.238 840.033 235.199C877.561 283.89 865.01 339.426 877.591 392.309C882.693 413.759 896.788 436.898 919.895 452.757C930.746 460.204 939.429 468.582 949.714 476.303C958.81 483.13 969.467 490.408 975.613 498.609C1007.2 540.761 994.186 585.991 994.186 631.209" stroke="#6CD1F1" stroke-width="14" stroke-linecap="round"/>
<path d="M-19.809 473.045C-11.1806 470.577 -3.95429 466.459 5.28654 464.917C12.522 463.71 20.5904 464.124 28.034 464.232C39.3577 464.396 51.6815 473.646 58.1193 479.214C70.7178 490.111 79.5315 502.343 90.4794 513.977C107.637 532.209 128.499 544.971 160.409 550.11C171.51 551.898 182.608 551.154 193.503 553.734C208.76 557.346 218.992 565.264 231.147 571.751" stroke="#6CD1F1" stroke-width="6" stroke-linecap="round"/>
</svg>
