<svg viewBox="0 0 249 500" fill="none" xmlns="http://www.w3.org/2000/svg">
<path d="M315.898 -62C305.188 -40.9918 299.01 -16.4257 315.256 3.4886C324.639 14.9903 338.954 24.1499 351.178 32.4121C364.768 41.5982 378.736 50.1163 391.742 60.1216M245.77 -44.6667C237.186 -28.16 222.223 -18.0378 223.988 2.25375C224.878 12.4886 241.909 21.4581 248.912 27.3208C262.437 38.6439 275.567 51.0118 287.477 64.0287C302.767 80.741 319.42 100.007 324.47 122.733C330.013 147.674 345.24 173.663 364.035 190.578M183.675 -14.9549C175.767 -4.51639 169.757 4.96903 169.535 18.7536C169.346 30.4481 176.994 41.3717 184.532 49.9624C199.89 67.4632 219.587 82.319 237.666 96.8828C254.694 110.6 268.544 126.682 279.802 145.446C290.763 163.716 297.919 183.97 307.725 202.864C316.766 220.284 327.406 237.158 339.791 252.427C348.085 262.652 358.99 270.715 368.786 279.423M142.686 -29.0953C132.113 -21.3206 120.562 -15.762 118.262 -1.38581C117.121 5.74515 116.977 12.5348 116.977 19.7534C116.977 29.3423 122.215 36.3782 128.26 43.6064C145.999 64.8152 172.576 79.1995 194.035 96.2401C205.807 105.589 222.659 120.947 208.818 135.448C196.083 148.789 182.537 163.515 182.537 182.725C182.537 208.964 203.196 229.658 223.03 244.643C250.298 265.246 276.531 282.79 309.8 292.563C338.775 301.074 368.208 312.892 398.499 315.416M85.3228 -20.6057C71.4421 -9.36898 60.8849 3.57668 60.1914 22.2989C59.7398 34.4938 60.7507 43.9371 66.2541 54.9437C73.6095 69.6546 87.3124 79.2964 100.453 88.5212C121.187 103.076 149.528 115.075 152.944 143.085C155.876 167.123 129.71 181.975 123.771 203.97C117.879 225.794 114.762 253.497 125.947 274.078C141.942 303.508 170.912 326.122 200.46 341.078C241.898 362.052 286.387 375.459 331.921 384.086C357.741 388.979 384.051 389.208 409.905 393.517M45.8873 -29C37.2655 -22.6604 26.453 -20.064 18.4242 -12.6776C11.1472 -5.98269 6.35418 3.37733 4.64086 12.9719C2.72806 23.6836 1.93643 34.0308 5.3663 44.6322C9.05684 56.0393 14.7187 66.6896 20.186 77.3288C30.1783 96.7733 46.5119 114.783 50.3436 136.815C51.4303 143.063 53.3343 153.316 50.9654 159.407C48.4325 165.92 45.6994 172.261 43.0892 178.787C36.6487 194.888 32.8294 209.194 32.8294 226.562C32.8294 247.093 45.195 264.379 56.1471 280.659C68.4818 298.995 85.6055 313.128 103.715 325.429C117.863 335.039 130.058 345.711 139.573 359.732C146.005 369.212 145.651 380.438 150.351 390.719C155.405 401.776 162.822 411.976 174.083 417.767C210.73 436.614 252.528 430.311 292.33 436.629C308.474 439.192 325.889 446.27 337.825 457.874C343.43 463.323 349.736 467.684 355.547 472.849C360.685 477.417 366.163 482.769 372.335 485.855C404.061 501.718 438.102 495.182 472.135 495.182M290.106 -15.2C288.249 -10.8668 285.149 -7.2378 283.989 -2.59711C283.08 1.03649 283.392 5.08839 283.473 8.82654C283.597 14.5132 290.558 20.7022 294.749 23.9352C302.951 30.2621 312.157 34.6883 320.913 40.1863C334.635 48.8028 344.24 59.2794 348.109 75.3048C349.454 80.8795 348.894 86.4526 350.836 91.9244C353.554 99.5865 359.514 104.725 364.397 110.829" stroke="#FF8000" stroke-width="6" stroke-linecap="round"/>
</svg>
