<svg viewBox="0 0 694 882" fill="none" xmlns="http://www.w3.org/2000/svg">
<path d="M658.324 -90C639.788 -53.6396 629.094 -11.1213 657.212 23.3457C673.452 43.2525 698.229 59.1056 719.385 73.4056C742.907 89.3045 767.081 104.047 789.593 121.364" stroke="#FF8000" stroke-width="4" stroke-linecap="round"/>
<path d="M536.947 -60C522.091 -31.4308 496.194 -13.9117 499.248 21.2084C500.788 38.9225 530.266 54.4467 542.386 64.5937C565.794 84.1913 588.521 105.597 609.133 128.127C635.596 157.052 664.419 190.397 673.16 229.73C682.753 272.898 709.108 317.878 741.637 347.154" stroke="#FF8000" stroke-width="8" stroke-linecap="round"/>
<path d="M429.477 -8.57574C415.79 9.49083 405.388 25.9079 405.003 49.7658C404.677 70.0062 417.912 88.9126 430.96 103.781C457.541 134.071 491.631 159.783 522.922 184.989C552.393 208.73 576.364 236.566 595.849 269.041C614.821 300.662 627.207 335.718 644.178 368.419C659.826 398.568 678.241 427.773 699.677 454.201C714.031 471.898 732.906 485.853 749.861 500.924" stroke="#FF8000" stroke-width="8" stroke-linecap="round"/>
<path d="M320.457 -33.0495C302.157 -19.5933 282.166 -9.97272 278.184 14.9092C276.21 27.2512 275.96 39.0026 275.96 51.4962C275.96 68.0925 285.026 80.2699 295.489 92.7803C326.19 129.488 372.19 154.384 409.329 183.877C429.705 200.058 458.871 226.639 434.915 251.736C412.874 274.827 389.429 300.314 389.429 333.563C389.429 378.977 425.186 414.792 459.513 440.728C506.709 476.387 552.111 506.752 609.693 523.667C659.842 538.398 710.783 558.851 763.21 563.22" stroke="#FF8000" stroke-width="10" stroke-linecap="round"/>
<path d="M191.751 -20.3626C167.727 -0.914505 149.455 21.4915 148.254 53.8953C147.473 75.0018 149.222 91.346 158.747 110.396C171.478 135.857 195.194 152.545 217.939 168.511C253.823 193.701 302.876 214.469 308.788 262.948C313.862 304.553 268.574 330.259 258.296 368.326C248.098 406.098 242.703 454.046 262.063 489.668C289.745 540.604 339.887 579.742 391.028 605.628C462.746 641.93 539.746 665.134 618.555 680.066C663.244 688.533 708.781 688.93 753.529 696.388" stroke="#FF8000" stroke-width="10" stroke-linecap="round"/>
<path d="M81.9783 -34.8914C67.0558 -23.919 48.3419 -19.4253 34.446 -6.64104C21.8511 4.94629 13.5555 21.1463 10.5902 37.7523C7.27957 56.2918 5.90945 74.2003 11.8458 92.549C18.2332 112.292 28.0325 130.725 37.4953 149.139C54.7897 182.793 83.0593 213.963 89.6911 252.096C91.5719 262.911 94.8672 280.655 90.7673 291.198C86.3834 302.471 81.6531 313.445 77.1354 324.74C65.9884 352.607 59.378 377.368 59.378 407.428C59.378 442.963 80.7801 472.88 99.7356 501.057C121.084 532.792 150.721 557.254 182.065 578.544C206.551 595.176 227.659 613.647 244.126 637.915C255.26 654.322 254.646 673.752 262.78 691.545C271.529 710.682 284.366 728.337 303.855 738.36C367.282 770.98 439.626 760.07 508.513 771.005C536.455 775.44 566.597 787.691 587.255 807.775C596.956 817.206 607.87 824.754 617.927 833.694C626.821 841.599 636.301 850.863 646.985 856.204C701.894 883.659 760.812 872.347 819.715 872.347" stroke="#FF8000" stroke-width="14" stroke-linecap="round"/>
<path d="M613.683 -9C610.469 -1.50029 605.104 4.78067 603.096 12.8126C601.524 19.1016 602.062 26.1145 602.203 32.5843C602.417 42.4267 614.466 53.1383 621.72 58.734C635.915 69.6844 651.849 77.3451 667.003 86.8608C690.754 101.774 707.378 119.907 714.073 147.643C716.402 157.291 715.432 166.937 718.792 176.407C723.498 189.669 733.812 198.562 742.263 209.126" stroke="#FF8000" stroke-width="6" stroke-linecap="round"/>
</svg>
