<svg viewBox="0 0 64 64" fill="none" xmlns="http://www.w3.org/2000/svg">
<circle cx="32" cy="32" r="26" stroke="#F3F3F3" stroke-width="12"/>
<mask id="path-2-inside-1_113_22" fill="white">
<path d="M64 32C64 37.0526 62.8036 42.0333 60.5087 46.5346C58.2138 51.0359 54.8856 54.9298 50.7966 57.8976C46.7076 60.8655 41.9739 62.8229 36.983 63.6097C31.992 64.3964 26.8857 63.9902 22.082 62.4242L25.8012 51.0151C28.8036 51.9939 31.995 52.2478 35.1143 51.756C38.2337 51.2643 41.1922 50.0409 43.7479 48.186C46.3035 46.3311 48.3836 43.8974 49.8179 41.0841C51.2522 38.2708 52 35.1578 52 32L64 32Z"/>
</mask>
<path d="M64 32C64 37.0526 62.8036 42.0333 60.5087 46.5346C58.2138 51.0359 54.8856 54.9298 50.7966 57.8976C46.7076 60.8655 41.9739 62.8229 36.983 63.6097C31.992 64.3964 26.8857 63.9902 22.082 62.4242L25.8012 51.0151C28.8036 51.9939 31.995 52.2478 35.1143 51.756C38.2337 51.2643 41.1922 50.0409 43.7479 48.186C46.3035 46.3311 48.3836 43.8974 49.8179 41.0841C51.2522 38.2708 52 35.1578 52 32L64 32Z" stroke="#CBCBCB" stroke-width="24" mask="url(#path-2-inside-1_113_22)"/>
</svg>
